<svg xmlns="http://www.w3.org/2000/svg" viewBox="0 0 1200 1470" width="1200" height="1470" role="img" aria-labelledby="ttl desc">
<title id="ttl">Onyx のシステム構成</title>
<desc id="desc">Obsidian の vault が obsidian-git で GitHub の my-vault に push され、GitHub Actions が build:vault と vite build と wrangler deploy を実行し、Cloudflare Workers 上の TanStack Start が静的アセットと D1 とともに配信され、ブラウザと PWA から閲覧される流れの図。</desc>
<style>
  :root{
    --bg:#ffffff; --panel:#f6f8fa; --panel2:#ffffff; --line:#d6dde5;
    --line-soft:#e6ebf0; --ink:#1f2328; --ink2:#4a5158; --muted:#6a737d;
    --arrow:#9aa4ae; --code:#24292f; --code-bg:#eceff3;
    --accent:#0050d1; --accent-soft:#e7eefc;
  }
  @media (prefers-color-scheme: dark){
    :root{
      --bg:#0d1117; --panel:#151b23; --panel2:#1b2230; --line:#303845;
      --line-soft:#262e3a; --ink:#e6edf3; --ink2:#b7c1cc; --muted:#8b949e;
      --arrow:#6b7683; --code:#d7dee6; --code-bg:#222a36;
      --accent:#6ea8ff; --accent-soft:#16233a;
    }
  }
  text{
    font-family:system-ui,-apple-system,"Hiragino Sans","Noto Sans JP",sans-serif;
    fill:var(--ink2);
  }
  .bg{fill:var(--bg)}
  .card{fill:var(--panel);stroke:var(--line);stroke-width:1}
  .chip{fill:var(--panel2);stroke:var(--line-soft);stroke-width:1}
  .badge{fill:var(--panel2);stroke:var(--line-soft);stroke-width:1}
  .pill{fill:var(--panel2);stroke:var(--line);stroke-width:1}
  .band{fill:var(--panel);stroke:var(--line);stroke-width:1}
  .accentbar{fill:var(--accent)}
  .stepbox{fill:var(--accent-soft);stroke:none}
  .d1box{fill:var(--accent-soft);stroke:var(--accent);stroke-width:1}
  .d1txt{fill:var(--accent);font-size:11px;font-weight:700;letter-spacing:.02em}
  .h1{fill:var(--ink);font-size:27px;font-weight:700;letter-spacing:.01em}
  .h2{fill:var(--muted);font-size:13.5px}
  .step{fill:var(--accent);font-size:12px;font-weight:700}
  .title{fill:var(--ink);font-size:17px;font-weight:700}
  .body{font-size:13px}
  .blabel{fill:var(--muted);font-size:10.5px}
  .cap{fill:var(--muted);font-size:11px}
  .chiptitle{fill:var(--ink);font-size:12.5px;font-weight:600}
  .chipbody{fill:var(--muted);font-size:11px}
  .note{fill:var(--ink2);font-size:12.5px}
  .pilltxt{fill:var(--ink2);font-size:11.5px}
  .code{font-family:ui-monospace,SFMono-Regular,Menlo,Consolas,monospace;
        font-size:11.5px;fill:var(--code)}
  .codebg{fill:var(--code-bg)}
  .flow{stroke:var(--arrow);stroke-width:2;fill:none;stroke-linecap:round}
  .head{fill:var(--arrow)}
  .c-obsidian{fill:#7C3AED}
  .c-github{fill:#24292F}
  .c-githubactions{fill:#1F6FEB}
  .c-cloudflare{fill:#E8730E}
  .c-cloudflareworkers{fill:#E8730E}
  .c-bun{fill:#2E2A24}
  .c-react{fill:#0E9BC0}
  .c-vite{fill:#9135FF}
  .c-tailwindcss{fill:#0891B2}
  .c-typescript{fill:#3178C6}
  .c-drizzle{fill:#6E9B22}
  .c-apple{fill:#111418}
  .c-tanstack{fill:#3D3A2E}
  .c-betterauth{fill:#111418}
  @media (prefers-color-scheme: dark){
    .c-obsidian{fill:#A78BFA}
    .c-github{fill:#E6EDF3}
    .c-githubactions{fill:#58A6FF}
    .c-cloudflare{fill:#F79A4B}
    .c-cloudflareworkers{fill:#F79A4B}
    .c-bun{fill:#FBF0DF}
    .c-react{fill:#61DAFB}
    .c-vite{fill:#B77BFF}
    .c-tailwindcss{fill:#38BDF8}
    .c-typescript{fill:#57A0E5}
    .c-drizzle{fill:#C5F74F}
    .c-apple{fill:#E6EDF3}
    .c-tanstack{fill:#ECE8D1}
    .c-betterauth{fill:#E6EDF3}
  }
</style>
<rect x="0" y="0" width="1200" height="1470" rx="20" class="bg"/>
<rect x="80" y="38" width="4" height="52" rx="2" class="accentbar"/>
<text x="100" y="60" class="h1">Onyx</text>
<text x="100" y="84" class="h2">Obsidian の vault が GitHub 経由で Cloudflare Workers に届くまで</text>
<rect x="80" y="112" width="1040" height="146" rx="16" class="card"/>
<rect x="108" y="138" width="64" height="64" rx="16" class="badge"/>
<g class="c-obsidian" transform="translate(124 154) scale(1.33333)"><path d="M19.355 18.538a68.967 68.959 0 0 0 1.858-2.954.81.81 0 0 0-.062-.9c-.516-.685-1.504-2.075-2.042-3.362-.553-1.321-.636-3.375-.64-4.377a1.707 1.707 0 0 0-.358-1.05l-3.198-4.064a3.744 3.744 0 0 1-.076.543c-.106.503-.307 1.004-.536 1.5-.134.29-.29.6-.446.914l-.31.626c-.516 1.068-.997 2.227-1.132 3.59-.124 1.26.046 2.73.815 4.481.128.011.257.025.386.044a6.363 6.363 0 0 1 3.326 1.505c.916.79 1.744 1.922 2.415 3.5zM8.199 22.569c.073.012.146.02.22.02.78.024 2.095.092 3.16.29.87.16 2.593.64 4.01 1.055 1.083.316 2.198-.548 2.355-1.664.114-.814.33-1.735.725-2.58l-.01.005c-.67-1.87-1.522-3.078-2.416-3.849a5.295 5.295 0 0 0-2.778-1.257c-1.54-.216-2.952.19-3.84.45.532 2.218.368 4.829-1.425 7.531zM5.533 9.938c-.023.1-.056.197-.098.29L2.82 16.059a1.602 1.602 0 0 0 .313 1.772l4.116 4.24c2.103-3.101 1.796-6.02.836-8.3-.728-1.73-1.832-3.081-2.55-3.831zM9.32 14.01c.615-.183 1.606-.465 2.745-.534-.683-1.725-.848-3.233-.716-4.577.154-1.552.7-2.847 1.235-3.95.113-.235.223-.454.328-.664.149-.297.288-.577.419-.86.217-.47.379-.885.46-1.27.08-.38.08-.72-.014-1.043-.095-.325-.297-.675-.68-1.06a1.6 1.6 0 0 0-1.475.36l-4.95 4.452a1.602 1.602 0 0 0-.513.952l-.427 2.83c.672.59 2.328 2.316 3.335 4.711.09.21.175.43.253.653z"/></g>
<text x="140" y="218" class="blabel" text-anchor="middle">Obsidian</text>
<rect x="180" y="138" width="64" height="64" rx="16" class="badge"/>
<g class="c-apple" transform="translate(196 154) scale(1.33333)"><path d="M12.152 6.896c-.948 0-2.415-1.078-3.96-1.04-2.04.027-3.91 1.183-4.961 3.014-2.117 3.675-.546 9.103 1.519 12.09 1.013 1.454 2.208 3.09 3.792 3.039 1.52-.065 2.09-.987 3.935-.987 1.831 0 2.35.987 3.96.948 1.637-.026 2.676-1.48 3.676-2.948 1.156-1.688 1.636-3.325 1.662-3.415-.039-.013-3.182-1.221-3.22-4.857-.026-3.04 2.48-4.494 2.597-4.559-1.429-2.09-3.623-2.324-4.39-2.376-2-.156-3.675 1.09-4.61 1.09zM15.53 3.83c.843-1.012 1.4-2.427 1.245-3.83-1.207.052-2.662.805-3.532 1.818-.78.896-1.454 2.338-1.273 3.714 1.338.104 2.715-.688 3.559-1.701"/></g>
<text x="212" y="218" class="blabel" text-anchor="middle">Mac</text>
<rect x="300" y="148" width="22" height="22" rx="7" class="stepbox"/>
<text x="311" y="164" class="step" text-anchor="middle">1</text>
<text x="332" y="164" class="title">Obsidian でノートを書く</text>
<text x="332" y="190" class="body">Mac のローカル vault に Markdown と添付ファイルを追加・編集する</text>
<rect x="332" y="208" width="101.21" height="27" rx="13.5" class="pill"/>
<text x="345" y="225.7" class="pilltxt">obsidian-git</text>
<rect x="443.21" y="208" width="95" height="27" rx="13.5" class="pill"/>
<text x="456.21" y="225.7" class="pilltxt">自動コミット</text>
<rect x="548.21" y="208" width="80.3375" height="27" rx="13.5" class="pill"/>
<text x="561.21" y="225.7" class="pilltxt">自動 push</text>
<path class="flow" d="M600 268 V 285"/>
<path class="flow" d="M600 315 V 329"/>
<path class="head" d="M600 340 l-6.5 -12 h13 Z"/>
<rect x="529.75" y="285" width="140.5" height="30" rx="15" class="pill"/>
<text x="547.75" y="304.2" class="pilltxt">20 分ごとに push</text>
<rect x="80" y="342" width="1040" height="146" rx="16" class="card"/>
<rect x="148" y="368" width="64" height="64" rx="16" class="badge"/>
<g class="c-github" transform="translate(164 384) scale(1.33333)"><path d="M12 .297c-6.63 0-12 5.373-12 12 0 5.303 3.438 9.8 8.205 11.385.6.113.82-.258.82-.577 0-.285-.01-1.04-.015-2.04-3.338.724-4.042-1.61-4.042-1.61C4.422 18.07 3.633 17.7 3.633 17.7c-1.087-.744.084-.729.084-.729 1.205.084 1.838 1.236 1.838 1.236 1.07 1.835 2.809 1.305 3.495.998.108-.776.417-1.305.76-1.605-2.665-.3-5.466-1.332-5.466-5.93 0-1.31.465-2.38 1.235-3.22-.135-.303-.54-1.523.105-3.176 0 0 1.005-.322 3.3 1.23.96-.267 1.98-.399 3-.405 1.02.006 2.04.138 3 .405 2.28-1.552 3.285-1.23 3.285-1.23.645 1.653.24 2.873.12 3.176.765.84 1.23 1.91 1.23 3.22 0 4.61-2.805 5.625-5.475 5.92.42.36.81 1.096.81 2.22 0 1.606-.015 2.896-.015 3.286 0 .315.21.69.825.57C20.565 22.092 24 17.592 24 12.297c0-6.627-5.373-12-12-12"/></g>
<text x="180" y="448" class="blabel" text-anchor="middle">GitHub</text>
<rect x="300" y="378" width="22" height="22" rx="7" class="stepbox"/>
<text x="311" y="394" class="step" text-anchor="middle">2</text>
<text x="332" y="394" class="title">GitHub — my-vault</text>
<text x="332" y="420" class="body">vault の正本。Onyx からは読み取り専用トークンで参照するだけ</text>
<rect x="332" y="438" width="69.8725" height="27" rx="13.5" class="pill"/>
<text x="345" y="455.7" class="pilltxt">private</text>
<rect x="411.873" y="438" width="76.14" height="27" rx="13.5" class="pill"/>
<text x="424.873" y="455.7" class="pilltxt">Markdown</text>
<rect x="498.012" y="438" width="95" height="27" rx="13.5" class="pill"/>
<text x="511.012" y="455.7" class="pilltxt">添付ファイル</text>
<rect x="603.013" y="438" width="141" height="27" rx="13.5" class="pill"/>
<text x="616.013" y="455.7" class="pilltxt">読み取り専用トークン</text>
<path class="flow" d="M600 498 V 515"/>
<path class="flow" d="M600 545 V 559"/>
<path class="head" d="M600 570 l-6.5 -12 h13 Z"/>
<rect x="469.531" y="515" width="260.938" height="30" rx="15" class="pill"/>
<text x="487.531" y="534.2" class="pilltxt">push を検知 / 15 分ごとに変更を確認</text>
<rect x="80" y="572" width="1040" height="200" rx="16" class="card"/>
<rect x="148" y="598" width="64" height="64" rx="16" class="badge"/>
<g class="c-githubactions" transform="translate(164 614) scale(1.33333)"><path d="M10.984 13.836a.5.5 0 0 1-.353-.146l-.745-.743a.5.5 0 1 1 .706-.708l.392.391 1.181-1.18a.5.5 0 0 1 .708.707l-1.535 1.533a.504.504 0 0 1-.354.146zm9.353-.147l1.534-1.532a.5.5 0 0 0-.707-.707l-1.181 1.18-.392-.391a.5.5 0 1 0-.706.708l.746.743a.497.497 0 0 0 .706-.001zM4.527 7.452l2.557-1.585A1 1 0 0 0 7.09 4.17L4.533 2.56A1 1 0 0 0 3 3.406v3.196a1.001 1.001 0 0 0 1.527.85zm2.03-2.436L4 6.602V3.406l2.557 1.61zM24 12.5c0 1.93-1.57 3.5-3.5 3.5a3.503 3.503 0 0 1-3.46-3h-2.08a3.503 3.503 0 0 1-3.46 3 3.502 3.502 0 0 1-3.46-3h-.558c-.972 0-1.85-.399-2.482-1.042V17c0 1.654 1.346 3 3 3h.04c.244-1.693 1.7-3 3.46-3 1.93 0 3.5 1.57 3.5 3.5S13.43 24 11.5 24a3.502 3.502 0 0 1-3.46-3H8c-2.206 0-4-1.794-4-4V9.899A5.008 5.008 0 0 1 0 5c0-2.757 2.243-5 5-5s5 2.243 5 5a5.005 5.005 0 0 1-4.952 4.998A2.482 2.482 0 0 0 7.482 12h.558c.244-1.693 1.7-3 3.46-3a3.502 3.502 0 0 1 3.46 3h2.08a3.503 3.503 0 0 1 3.46-3c1.93 0 3.5 1.57 3.5 3.5zm-15 8c0 1.378 1.122 2.5 2.5 2.5s2.5-1.122 2.5-2.5-1.122-2.5-2.5-2.5S9 19.122 9 20.5zM5 9c2.206 0 4-1.794 4-4S7.206 1 5 1 1 2.794 1 5s1.794 4 4 4zm9 3.5c0-1.378-1.122-2.5-2.5-2.5S9 11.122 9 12.5s1.122 2.5 2.5 2.5 2.5-1.122 2.5-2.5zm9 0c0-1.378-1.122-2.5-2.5-2.5S18 11.122 18 12.5s1.122 2.5 2.5 2.5 2.5-1.122 2.5-2.5zm-13 8a.5.5 0 1 0 1 0 .5.5 0 0 0-1 0zm2 0a.5.5 0 1 0 1 0 .5.5 0 0 0-1 0zm12 0c0 1.93-1.57 3.5-3.5 3.5a3.503 3.503 0 0 1-3.46-3.002c-.007.001-.013.005-.021.005l-.506.017h-.017a.5.5 0 0 1-.016-.999l.506-.017c.018-.002.035.006.052.007A3.503 3.503 0 0 1 20.5 17c1.93 0 3.5 1.57 3.5 3.5zm-1 0c0-1.378-1.122-2.5-2.5-2.5S18 19.122 18 20.5s1.122 2.5 2.5 2.5 2.5-1.122 2.5-2.5z"/></g>
<text x="180" y="678" class="blabel" text-anchor="middle">GitHub Actions</text>
<rect x="300" y="608" width="22" height="22" rx="7" class="stepbox"/>
<text x="311" y="624" class="step" text-anchor="middle">3</text>
<text x="332" y="624" class="title">GitHub Actions(Onyx リポジトリ)</text>
<text x="332" y="650" class="body">my-vault を checkout して、静的なサイト一式をまとめて組み立てる</text>
<rect x="332" y="668" width="244.667" height="80" rx="12" class="chip"/>
<g class="c-bun" transform="translate(346 681) scale(0.666667)"><path d="M12 22.596c6.628 0 12-4.338 12-9.688 0-3.318-2.057-6.248-5.219-7.986-1.286-.715-2.297-1.357-3.139-1.89C14.058 2.025 13.08 1.404 12 1.404c-1.097 0-2.334.785-3.966 1.821a49.92 49.92 0 0 1-2.816 1.697C2.057 6.66 0 9.59 0 12.908c0 5.35 5.372 9.687 12 9.687v.001ZM10.599 4.715c.334-.759.503-1.58.498-2.409 0-.145.202-.187.23-.029.658 2.783-.902 4.162-2.057 4.624-.124.048-.199-.121-.103-.209a5.763 5.763 0 0 0 1.432-1.977Zm2.058-.102a5.82 5.82 0 0 0-.782-2.306v-.016c-.069-.123.086-.263.185-.172 1.962 2.111 1.307 4.067.556 5.051-.082.103-.23-.003-.189-.126a5.85 5.85 0 0 0 .23-2.431Zm1.776-.561a5.727 5.727 0 0 0-1.612-1.806v-.014c-.112-.085-.024-.274.114-.218 2.595 1.087 2.774 3.18 2.459 4.407a.116.116 0 0 1-.049.071.11.11 0 0 1-.153-.026.122.122 0 0 1-.022-.083 5.891 5.891 0 0 0-.737-2.331Zm-5.087.561c-.617.546-1.282.76-2.063 1-.117 0-.195-.078-.156-.181 1.752-.909 2.376-1.649 2.999-2.778 0 0 .155-.118.188.085 0 .304-.349 1.329-.968 1.874Zm4.945 11.237a2.957 2.957 0 0 1-.937 1.553c-.346.346-.8.565-1.286.62a2.178 2.178 0 0 1-1.327-.62 2.955 2.955 0 0 1-.925-1.553.244.244 0 0 1 .064-.198.234.234 0 0 1 .193-.069h3.965a.226.226 0 0 1 .19.07c.05.053.073.125.063.197Zm-5.458-2.176a1.862 1.862 0 0 1-2.384-.245 1.98 1.98 0 0 1-.233-2.447c.207-.319.503-.566.848-.713a1.84 1.84 0 0 1 1.092-.11c.366.075.703.261.967.531a1.98 1.98 0 0 1 .408 2.114 1.931 1.931 0 0 1-.698.869v.001Zm8.495.005a1.86 1.86 0 0 1-2.381-.253 1.964 1.964 0 0 1-.547-1.366c0-.384.11-.76.32-1.079.207-.319.503-.567.849-.713a1.844 1.844 0 0 1 1.093-.108c.367.076.704.262.968.534a1.98 1.98 0 0 1 .4 2.117 1.932 1.932 0 0 1-.702.868Z"/></g>
<rect x="368" y="680" width="153.655" height="19" rx="5" class="codebg"/>
<text x="376" y="693.5" class="code">bun run build:vault</text>
<text x="347" y="718" class="chipbody">packages/vault が Markdown を索引し、</text>
<text x="347" y="734" class="chipbody">HTML 化して JSON を生成する</text>
<rect x="592.667" y="668" width="244.667" height="80" rx="12" class="chip"/>
<g class="c-vite" transform="translate(606.667 681) scale(0.666667)"><path d="M13.056 23.238a.57.57 0 0 1-1.02-.355v-5.202c0-.63-.512-1.143-1.144-1.143H5.148a.57.57 0 0 1-.464-.903l3.777-5.29c.54-.753 0-1.804-.93-1.804H.57a.574.574 0 0 1-.543-.746.6.6 0 0 1 .08-.157L5.008.78a.57.57 0 0 1 .467-.24h14.589a.57.57 0 0 1 .466.903l-3.778 5.29c-.54.755 0 1.806.93 1.806h5.745c.238 0 .424.138.513.322a.56.56 0 0 1-.063.603z"/></g>
<rect x="628.667" y="680" width="88.45" height="19" rx="5" class="codebg"/>
<text x="636.667" y="693.5" class="code">vite build</text>
<text x="607.667" y="718" class="chipbody">TanStack Start のサーバーと</text>
<text x="607.667" y="734" class="chipbody">クライアントをビルドする</text>
<rect x="853.333" y="668" width="244.667" height="80" rx="12" class="chip"/>
<g class="c-cloudflareworkers" transform="translate(867.333 681) scale(0.666667)"><path d="m8.213.063 8.879 12.136-8.67 11.739h2.476l8.665-11.735-8.89-12.14Zm4.728 0 9.02 11.992-9.018 11.883h2.496L24 12.656v-1.199L15.434.063ZM7.178 2.02.01 11.398l-.01 1.2 7.203 9.644 1.238-1.676-6.396-8.556 6.361-8.313Z"/></g>
<rect x="889.333" y="680" width="124.675" height="19" rx="5" class="codebg"/>
<text x="897.333" y="693.5" class="code">wrangler deploy</text>
<text x="868.333" y="718" class="chipbody">Workers へデプロイして、</text>
<text x="868.333" y="734" class="chipbody">静的アセットも一緒に配置する</text>
<path class="flow" d="M600 782 V 799"/>
<path class="flow" d="M600 829 V 843"/>
<path class="head" d="M600 854 l-6.5 -12 h13 Z"/>
<rect x="479.75" y="799" width="240.5" height="30" rx="15" class="pill"/>
<text x="497.75" y="818.2" class="pilltxt">ノート JSON + 添付ファイルを配置</text>
<rect x="80" y="856" width="1040" height="216" rx="16" class="card"/>
<rect x="108" y="882" width="64" height="64" rx="16" class="badge"/>
<g class="c-cloudflareworkers" transform="translate(124 898) scale(1.33333)"><path d="m8.213.063 8.879 12.136-8.67 11.739h2.476l8.665-11.735-8.89-12.14Zm4.728 0 9.02 11.992-9.018 11.883h2.496L24 12.656v-1.199L15.434.063ZM7.178 2.02.01 11.398l-.01 1.2 7.203 9.644 1.238-1.676-6.396-8.556 6.361-8.313Z"/></g>
<text x="140" y="962" class="blabel" text-anchor="middle">Workers</text>
<rect x="180" y="882" width="64" height="64" rx="16" class="badge"/>
<g class="c-tanstack" transform="translate(196 898) scale(1.33333)"><path d="M12 0c6.627 0 9.166 4.102 9.166 12S18.626 24 12 24s-9.166-4.096-9.166-12c0-7.898 2.54-12 9.166-12m3.031 17.485c-.861 0-1.33.234-1.708.423-.327.164-.582.292-1.148.292-.567 0-.822-.128-1.148-.292-.378-.189-.848-.423-1.71-.423-.86 0-1.33.234-1.708.423-.327.164-.581.292-1.148.292v1.251c.862 0 1.331-.234 1.709-.423.326-.163.581-.292 1.148-.292s.821.129 1.148.292c.378.189.847.423 1.709.423.861 0 1.33-.234 1.709-.423.326-.163.58-.292 1.147-.292s.822.129 1.148.292c.378.189.848.423 1.71.423v-1.25c-.565 0-.822-.13-1.149-.293-.377-.189-.847-.423-1.709-.423m.41-12.536c.65-.586 0-1.648-.813-1.328-.45.18-.873.438-1.251.779a4.2 4.2 0 0 0-1.202 1.94 4.2 4.2 0 0 0-1.203-1.94 4.3 4.3 0 0 0-1.25-.779c-.814-.32-1.463.742-.814 1.328l2.385 2.153a4.86 4.86 0 0 0-2.731-.839c-.552 0-1.082.09-1.58.26-.836.284-.604 1.532.275 1.532h3.326a4.2 4.2 0 0 0-2.012.988 4 4 0 0 0-.9 1.165c-.403.776.588 1.529 1.237.948l2.686-2.42-.2 6.656c0 .08-.047.158-.107.223a5 5 0 0 1-.257-.123c-.378-.189-.848-.423-1.71-.423-.861 0-1.33.234-1.708.423-.327.164-.581.292-1.148.292v1.251c.861 0 1.33-.234 1.709-.423.326-.164.58-.292 1.148-.292.566 0 .821.128 1.148.292.377.189.847.423 1.708.423.862 0 1.332-.234 1.71-.423.326-.164.58-.292 1.147-.292s.822.128 1.148.292c.378.189.848.423 1.71.423v-1.25c-.565 0-.822-.13-1.149-.293v-.005c-.378-.19-.847-.424-1.709-.424-.861 0-1.33.235-1.709.424-.097.045-.189.094-.283.131a.34.34 0 0 1-.12-.232l-.2-6.69 2.722 2.457c.65.587 1.64-.166 1.236-.948a4.11 4.11 0 0 0-2.911-2.153h3.326c.882 0 1.108-1.245.275-1.531a4.88 4.88 0 0 0-4.311.578l2.385-2.152z"/></g>
<text x="212" y="962" class="blabel" text-anchor="middle">TanStack Start</text>
<rect x="300" y="892" width="22" height="22" rx="7" class="stepbox"/>
<text x="311" y="908" class="step" text-anchor="middle">4</text>
<text x="332" y="908" class="title">Cloudflare Workers</text>
<text x="332" y="934" class="body">TanStack Start(SSR + server functions)が Workers 上で動く</text>
<rect x="332" y="952" width="374" height="94" rx="12" class="chip"/>
<g class="c-cloudflare" transform="translate(346 964) scale(0.708333)"><path d="M16.5088 16.8447c.1475-.5068.0908-.9707-.1553-1.3154-.2246-.3164-.6045-.499-1.0615-.5205l-8.6592-.1123a.1559.1559 0 0 1-.1333-.0713c-.0283-.042-.0351-.0986-.021-.1553.0278-.084.1123-.1484.2036-.1562l8.7359-.1123c1.0351-.0489 2.1601-.8868 2.5537-1.9136l.499-1.3013c.0215-.0561.0293-.1128.0147-.168-.5625-2.5463-2.835-4.4453-5.5499-4.4453-2.5039 0-4.6284 1.6177-5.3876 3.8614-.4927-.3658-1.1187-.5625-1.794-.499-1.2026.119-2.1665 1.083-2.2861 2.2856-.0283.31-.0069.6128.0635.894C1.5683 13.171 0 14.7754 0 16.752c0 .1748.0142.3515.0352.5273.0141.083.0844.1475.1689.1475h15.9814c.0909 0 .1758-.0645.2032-.1553l.12-.4268zm2.7568-5.5634c-.0771 0-.1611 0-.2383.0112-.0566 0-.1054.0415-.127.0976l-.3378 1.1744c-.1475.5068-.0918.9707.1543 1.3164.2256.3164.6055.498 1.0625.5195l1.8437.1133c.0557 0 .1055.0263.1329.0703.0283.043.0351.1074.0214.1562-.0283.084-.1132.1485-.204.1553l-1.921.1123c-1.041.0488-2.1582.8867-2.5527 1.914l-.1406.3585c-.0283.0713.0215.1416.0986.1416h6.5977c.0771 0 .1474-.0489.169-.126.1122-.4082.1757-.837.1757-1.2803 0-2.6025-2.125-4.727-4.7344-4.727"/></g>
<text x="372" y="978" class="chiptitle">静的アセット(同梱)</text>
<rect x="347" y="990" width="204.37" height="19" rx="5" class="codebg"/>
<text x="355" y="1003.5" class="code">/vault/*.json  ·  /files/*</text>
<text x="347" y="1028" class="chipbody">索引・HTML 済みのノートと添付ファイル</text>
<rect x="724" y="952" width="374" height="94" rx="12" class="chip"/>
<rect x="738" y="964" width="30" height="21" rx="6" class="d1box"/>
<text x="753" y="979" class="d1txt" text-anchor="middle">D1</text>
<text x="776" y="979" class="chiptitle">D1(better-auth 専用)</text>
<text x="739" y="1007" class="chipbody">ユーザーとセッションだけを保存する</text>
<text x="739" y="1028" class="chipbody">vault の中身は DB に一切入れない</text>
<path class="flow" d="M600 1082 V 1099"/>
<path class="flow" d="M600 1129 V 1143"/>
<path class="head" d="M600 1154 l-6.5 -12 h13 Z"/>
<rect x="489.219" y="1099" width="221.562" height="30" rx="15" class="pill"/>
<g class="c-betterauth" transform="translate(507.219 1107) scale(0.583333)"><path d="M0 3.39v17.22h5.783V15.06h6.434V8.939H5.783V3.39ZM12.217 8.94h5.638v6.122h-5.638v5.548H24V3.391H12.217Z"/></g>
<text x="529.219" y="1118.2" class="pilltxt">ログイン必須(better-auth)</text>
<rect x="80" y="1156" width="1040" height="146" rx="16" class="card"/>
<rect x="148" y="1182" width="64" height="64" rx="16" class="badge"/>
<g class="c-apple" transform="translate(164 1198) scale(1.33333)"><path d="M12.152 6.896c-.948 0-2.415-1.078-3.96-1.04-2.04.027-3.91 1.183-4.961 3.014-2.117 3.675-.546 9.103 1.519 12.09 1.013 1.454 2.208 3.09 3.792 3.039 1.52-.065 2.09-.987 3.935-.987 1.831 0 2.35.987 3.96.948 1.637-.026 2.676-1.48 3.676-2.948 1.156-1.688 1.636-3.325 1.662-3.415-.039-.013-3.182-1.221-3.22-4.857-.026-3.04 2.48-4.494 2.597-4.559-1.429-2.09-3.623-2.324-4.39-2.376-2-.156-3.675 1.09-4.61 1.09zM15.53 3.83c.843-1.012 1.4-2.427 1.245-3.83-1.207.052-2.662.805-3.532 1.818-.78.896-1.454 2.338-1.273 3.714 1.338.104 2.715-.688 3.559-1.701"/></g>
<text x="180" y="1262" class="blabel" text-anchor="middle">iPhone / iPad / Mac</text>
<rect x="300" y="1192" width="22" height="22" rx="7" class="stepbox"/>
<text x="311" y="1208" class="step" text-anchor="middle">5</text>
<text x="332" y="1208" class="title">ブラウザ / PWA で読む</text>
<text x="332" y="1234" class="body">ログインするとノートが開く。検索とグラフはブラウザ側で処理する</text>
<rect x="332" y="1252" width="83.5" height="27" rx="13.5" class="pill"/>
<text x="345" y="1269.7" class="pilltxt">ノート閲覧</text>
<rect x="425.5" y="1252" width="165.035" height="27" rx="13.5" class="pill"/>
<text x="438.5" y="1269.7" class="pilltxt">全文検索(クライアント側)</text>
<rect x="600.535" y="1252" width="60.5" height="27" rx="13.5" class="pill"/>
<text x="613.535" y="1269.7" class="pilltxt">グラフ</text>
<rect x="671.035" y="1252" width="120.07" height="27" rx="13.5" class="pill"/>
<text x="684.035" y="1269.7" class="pilltxt">PWA インストール</text>
<rect x="80" y="1336" width="1040" height="94" rx="16" class="band"/>
<g class="c-bun" transform="translate(114.273 1358) scale(1.08333)"><path d="M12 22.596c6.628 0 12-4.338 12-9.688 0-3.318-2.057-6.248-5.219-7.986-1.286-.715-2.297-1.357-3.139-1.89C14.058 2.025 13.08 1.404 12 1.404c-1.097 0-2.334.785-3.966 1.821a49.92 49.92 0 0 1-2.816 1.697C2.057 6.66 0 9.59 0 12.908c0 5.35 5.372 9.687 12 9.687v.001ZM10.599 4.715c.334-.759.503-1.58.498-2.409 0-.145.202-.187.23-.029.658 2.783-.902 4.162-2.057 4.624-.124.048-.199-.121-.103-.209a5.763 5.763 0 0 0 1.432-1.977Zm2.058-.102a5.82 5.82 0 0 0-.782-2.306v-.016c-.069-.123.086-.263.185-.172 1.962 2.111 1.307 4.067.556 5.051-.082.103-.23-.003-.189-.126a5.85 5.85 0 0 0 .23-2.431Zm1.776-.561a5.727 5.727 0 0 0-1.612-1.806v-.014c-.112-.085-.024-.274.114-.218 2.595 1.087 2.774 3.18 2.459 4.407a.116.116 0 0 1-.049.071.11.11 0 0 1-.153-.026.122.122 0 0 1-.022-.083 5.891 5.891 0 0 0-.737-2.331Zm-5.087.561c-.617.546-1.282.76-2.063 1-.117 0-.195-.078-.156-.181 1.752-.909 2.376-1.649 2.999-2.778 0 0 .155-.118.188.085 0 .304-.349 1.329-.968 1.874Zm4.945 11.237a2.957 2.957 0 0 1-.937 1.553c-.346.346-.8.565-1.286.62a2.178 2.178 0 0 1-1.327-.62 2.955 2.955 0 0 1-.925-1.553.244.244 0 0 1 .064-.198.234.234 0 0 1 .193-.069h3.965a.226.226 0 0 1 .19.07c.05.053.073.125.063.197Zm-5.458-2.176a1.862 1.862 0 0 1-2.384-.245 1.98 1.98 0 0 1-.233-2.447c.207-.319.503-.566.848-.713a1.84 1.84 0 0 1 1.092-.11c.366.075.703.261.967.531a1.98 1.98 0 0 1 .408 2.114 1.931 1.931 0 0 1-.698.869v.001Zm8.495.005a1.86 1.86 0 0 1-2.381-.253 1.964 1.964 0 0 1-.547-1.366c0-.384.11-.76.32-1.079.207-.319.503-.567.849-.713a1.844 1.844 0 0 1 1.093-.108c.367.076.704.262.968.534a1.98 1.98 0 0 1 .4 2.117 1.932 1.932 0 0 1-.702.868Z"/></g>
<text x="127.273" y="1403" class="blabel" text-anchor="middle">Bun</text>
<g class="c-typescript" transform="translate(208.818 1358) scale(1.08333)"><path d="M1.125 0C.502 0 0 .502 0 1.125v21.75C0 23.498.502 24 1.125 24h21.75c.623 0 1.125-.502 1.125-1.125V1.125C24 .502 23.498 0 22.875 0zm17.363 9.75c.612 0 1.154.037 1.627.111a6.38 6.38 0 0 1 1.306.34v2.458a3.95 3.95 0 0 0-.643-.361 5.093 5.093 0 0 0-.717-.26 5.453 5.453 0 0 0-1.426-.2c-.3 0-.573.028-.819.086a2.1 2.1 0 0 0-.623.242c-.17.104-.3.229-.393.374a.888.888 0 0 0-.14.49c0 .196.053.373.156.529.104.156.252.304.443.444s.423.276.696.41c.273.135.582.274.926.416.47.197.892.407 1.266.628.374.222.695.473.963.753.268.279.472.598.614.957.142.359.214.776.214 1.253 0 .657-.125 1.21-.373 1.656a3.033 3.033 0 0 1-1.012 1.085 4.38 4.38 0 0 1-1.487.596c-.566.12-1.163.18-1.79.18a9.916 9.916 0 0 1-1.84-.164 5.544 5.544 0 0 1-1.512-.493v-2.63a5.033 5.033 0 0 0 3.237 1.2c.333 0 .624-.03.872-.09.249-.06.456-.144.623-.25.166-.108.29-.234.373-.38a1.023 1.023 0 0 0-.074-1.089 2.12 2.12 0 0 0-.537-.5 5.597 5.597 0 0 0-.807-.444 27.72 27.72 0 0 0-1.007-.436c-.918-.383-1.602-.852-2.053-1.405-.45-.553-.676-1.222-.676-2.005 0-.614.123-1.141.369-1.582.246-.441.58-.804 1.004-1.089a4.494 4.494 0 0 1 1.47-.629 7.536 7.536 0 0 1 1.77-.201zm-15.113.188h9.563v2.166H9.506v9.646H6.789v-9.646H3.375z"/></g>
<text x="221.818" y="1403" class="blabel" text-anchor="middle">TypeScript</text>
<g class="c-react" transform="translate(303.364 1358) scale(1.08333)"><path d="M14.23 12.004a2.236 2.236 0 0 1-2.235 2.236 2.236 2.236 0 0 1-2.236-2.236 2.236 2.236 0 0 1 2.235-2.236 2.236 2.236 0 0 1 2.236 2.236zm2.648-10.69c-1.346 0-3.107.96-4.888 2.622-1.78-1.653-3.542-2.602-4.887-2.602-.41 0-.783.093-1.106.278-1.375.793-1.683 3.264-.973 6.365C1.98 8.917 0 10.42 0 12.004c0 1.59 1.99 3.097 5.043 4.03-.704 3.113-.39 5.588.988 6.38.32.187.69.275 1.102.275 1.345 0 3.107-.96 4.888-2.624 1.78 1.654 3.542 2.603 4.887 2.603.41 0 .783-.09 1.106-.275 1.374-.792 1.683-3.263.973-6.365C22.02 15.096 24 13.59 24 12.004c0-1.59-1.99-3.097-5.043-4.032.704-3.11.39-5.587-.988-6.38-.318-.184-.688-.277-1.092-.278zm-.005 1.09v.006c.225 0 .406.044.558.127.666.382.955 1.835.73 3.704-.054.46-.142.945-.25 1.44-.96-.236-2.006-.417-3.107-.534-.66-.905-1.345-1.727-2.035-2.447 1.592-1.48 3.087-2.292 4.105-2.295zm-9.77.02c1.012 0 2.514.808 4.11 2.28-.686.72-1.37 1.537-2.02 2.442-1.107.117-2.154.298-3.113.538-.112-.49-.195-.964-.254-1.42-.23-1.868.054-3.32.714-3.707.19-.09.4-.127.563-.132zm4.882 3.05c.455.468.91.992 1.36 1.564-.44-.02-.89-.034-1.345-.034-.46 0-.915.01-1.36.034.44-.572.895-1.096 1.345-1.565zM12 8.1c.74 0 1.477.034 2.202.093.406.582.802 1.203 1.183 1.86.372.64.71 1.29 1.018 1.946-.308.655-.646 1.31-1.013 1.95-.38.66-.773 1.288-1.18 1.87-.728.063-1.466.098-2.21.098-.74 0-1.477-.035-2.202-.093-.406-.582-.802-1.204-1.183-1.86-.372-.64-.71-1.29-1.018-1.946.303-.657.646-1.313 1.013-1.954.38-.66.773-1.286 1.18-1.868.728-.064 1.466-.098 2.21-.098zm-3.635.254c-.24.377-.48.763-.704 1.16-.225.39-.435.782-.635 1.174-.265-.656-.49-1.31-.676-1.947.64-.15 1.315-.283 2.015-.386zm7.26 0c.695.103 1.365.23 2.006.387-.18.632-.405 1.282-.66 1.933-.2-.39-.41-.783-.64-1.174-.225-.392-.465-.774-.705-1.146zm3.063.675c.484.15.944.317 1.375.498 1.732.74 2.852 1.708 2.852 2.476-.005.768-1.125 1.74-2.857 2.475-.42.18-.88.342-1.355.493-.28-.958-.646-1.956-1.1-2.98.45-1.017.81-2.01 1.085-2.964zm-13.395.004c.278.96.645 1.957 1.1 2.98-.45 1.017-.812 2.01-1.086 2.964-.484-.15-.944-.318-1.37-.5-1.732-.737-2.852-1.706-2.852-2.474 0-.768 1.12-1.742 2.852-2.476.42-.18.88-.342 1.356-.494zm11.678 4.28c.265.657.49 1.312.676 1.948-.64.157-1.316.29-2.016.39.24-.375.48-.762.705-1.158.225-.39.435-.788.636-1.18zm-9.945.02c.2.392.41.783.64 1.175.23.39.465.772.705 1.143-.695-.102-1.365-.23-2.006-.386.18-.63.406-1.282.66-1.933zM17.92 16.32c.112.493.2.968.254 1.423.23 1.868-.054 3.32-.714 3.708-.147.09-.338.128-.563.128-1.012 0-2.514-.807-4.11-2.28.686-.72 1.37-1.536 2.02-2.44 1.107-.118 2.154-.3 3.113-.54zm-11.83.01c.96.234 2.006.415 3.107.532.66.905 1.345 1.727 2.035 2.446-1.595 1.483-3.092 2.295-4.11 2.295-.22-.005-.406-.05-.553-.132-.666-.38-.955-1.834-.73-3.703.054-.46.142-.944.25-1.438zm4.56.64c.44.02.89.034 1.345.034.46 0 .915-.01 1.36-.034-.44.572-.895 1.095-1.345 1.565-.455-.47-.91-.993-1.36-1.565z"/></g>
<text x="316.364" y="1403" class="blabel" text-anchor="middle">React</text>
<g class="c-tanstack" transform="translate(397.909 1358) scale(1.08333)"><path d="M12 0c6.627 0 9.166 4.102 9.166 12S18.626 24 12 24s-9.166-4.096-9.166-12c0-7.898 2.54-12 9.166-12m3.031 17.485c-.861 0-1.33.234-1.708.423-.327.164-.582.292-1.148.292-.567 0-.822-.128-1.148-.292-.378-.189-.848-.423-1.71-.423-.86 0-1.33.234-1.708.423-.327.164-.581.292-1.148.292v1.251c.862 0 1.331-.234 1.709-.423.326-.163.581-.292 1.148-.292s.821.129 1.148.292c.378.189.847.423 1.709.423.861 0 1.33-.234 1.709-.423.326-.163.58-.292 1.147-.292s.822.129 1.148.292c.378.189.848.423 1.71.423v-1.25c-.565 0-.822-.13-1.149-.293-.377-.189-.847-.423-1.709-.423m.41-12.536c.65-.586 0-1.648-.813-1.328-.45.18-.873.438-1.251.779a4.2 4.2 0 0 0-1.202 1.94 4.2 4.2 0 0 0-1.203-1.94 4.3 4.3 0 0 0-1.25-.779c-.814-.32-1.463.742-.814 1.328l2.385 2.153a4.86 4.86 0 0 0-2.731-.839c-.552 0-1.082.09-1.58.26-.836.284-.604 1.532.275 1.532h3.326a4.2 4.2 0 0 0-2.012.988 4 4 0 0 0-.9 1.165c-.403.776.588 1.529 1.237.948l2.686-2.42-.2 6.656c0 .08-.047.158-.107.223a5 5 0 0 1-.257-.123c-.378-.189-.848-.423-1.71-.423-.861 0-1.33.234-1.708.423-.327.164-.581.292-1.148.292v1.251c.861 0 1.33-.234 1.709-.423.326-.164.58-.292 1.148-.292.566 0 .821.128 1.148.292.377.189.847.423 1.708.423.862 0 1.332-.234 1.71-.423.326-.164.58-.292 1.147-.292s.822.128 1.148.292c.378.189.848.423 1.71.423v-1.25c-.565 0-.822-.13-1.149-.293v-.005c-.378-.19-.847-.424-1.709-.424-.861 0-1.33.235-1.709.424-.097.045-.189.094-.283.131a.34.34 0 0 1-.12-.232l-.2-6.69 2.722 2.457c.65.587 1.64-.166 1.236-.948a4.11 4.11 0 0 0-2.911-2.153h3.326c.882 0 1.108-1.245.275-1.531a4.88 4.88 0 0 0-4.311.578l2.385-2.152z"/></g>
<text x="410.909" y="1403" class="blabel" text-anchor="middle">TanStack Start</text>
<g class="c-vite" transform="translate(492.455 1358) scale(1.08333)"><path d="M13.056 23.238a.57.57 0 0 1-1.02-.355v-5.202c0-.63-.512-1.143-1.144-1.143H5.148a.57.57 0 0 1-.464-.903l3.777-5.29c.54-.753 0-1.804-.93-1.804H.57a.574.574 0 0 1-.543-.746.6.6 0 0 1 .08-.157L5.008.78a.57.57 0 0 1 .467-.24h14.589a.57.57 0 0 1 .466.903l-3.778 5.29c-.54.755 0 1.806.93 1.806h5.745c.238 0 .424.138.513.322a.56.56 0 0 1-.063.603z"/></g>
<text x="505.455" y="1403" class="blabel" text-anchor="middle">Vite+</text>
<g class="c-tailwindcss" transform="translate(587 1358) scale(1.08333)"><path d="M12.001,4.8c-3.2,0-5.2,1.6-6,4.8c1.2-1.6,2.6-2.2,4.2-1.8c0.913,0.228,1.565,0.89,2.288,1.624 C13.666,10.618,15.027,12,18.001,12c3.2,0,5.2-1.6,6-4.8c-1.2,1.6-2.6,2.2-4.2,1.8c-0.913-0.228-1.565-0.89-2.288-1.624 C16.337,6.182,14.976,4.8,12.001,4.8z M6.001,12c-3.2,0-5.2,1.6-6,4.8c1.2-1.6,2.6-2.2,4.2-1.8c0.913,0.228,1.565,0.89,2.288,1.624 c1.177,1.194,2.538,2.576,5.512,2.576c3.2,0,5.2-1.6,6-4.8c-1.2,1.6-2.6,2.2-4.2,1.8c-0.913-0.228-1.565-0.89-2.288-1.624 C10.337,13.382,8.976,12,6.001,12z"/></g>
<text x="600" y="1403" class="blabel" text-anchor="middle">Tailwind CSS</text>
<g class="c-drizzle" transform="translate(681.545 1358) scale(1.08333)"><path d="M5.353 11.823a1.036 1.036 0 0 0-.395-1.422 1.063 1.063 0 0 0-1.437.399L.138 16.702a1.035 1.035 0 0 0 .395 1.422 1.063 1.063 0 0 0 1.437-.398l3.383-5.903Zm11.216 0a1.036 1.036 0 0 0-.394-1.422 1.064 1.064 0 0 0-1.438.399l-3.382 5.902a1.036 1.036 0 0 0 .394 1.422c.506.283 1.15.104 1.438-.398l3.382-5.903Zm7.293-4.525a1.036 1.036 0 0 0-.395-1.422 1.062 1.062 0 0 0-1.437.399l-3.383 5.902a1.036 1.036 0 0 0 .395 1.422 1.063 1.063 0 0 0 1.437-.399l3.383-5.902Zm-11.219 0a1.035 1.035 0 0 0-.394-1.422 1.064 1.064 0 0 0-1.438.398l-3.382 5.903a1.036 1.036 0 0 0 .394 1.422c.506.282 1.15.104 1.438-.399l3.382-5.902Z"/></g>
<text x="694.545" y="1403" class="blabel" text-anchor="middle">Drizzle</text>
<g class="c-betterauth" transform="translate(776.091 1358) scale(1.08333)"><path d="M0 3.39v17.22h5.783V15.06h6.434V8.939H5.783V3.39ZM12.217 8.94h5.638v6.122h-5.638v5.548H24V3.391H12.217Z"/></g>
<text x="789.091" y="1403" class="blabel" text-anchor="middle">better-auth</text>
<g class="c-cloudflareworkers" transform="translate(870.636 1358) scale(1.08333)"><path d="m8.213.063 8.879 12.136-8.67 11.739h2.476l8.665-11.735-8.89-12.14Zm4.728 0 9.02 11.992-9.018 11.883h2.496L24 12.656v-1.199L15.434.063ZM7.178 2.02.01 11.398l-.01 1.2 7.203 9.644 1.238-1.676-6.396-8.556 6.361-8.313Z"/></g>
<text x="883.636" y="1403" class="blabel" text-anchor="middle">Workers</text>
<rect x="962.182" y="1361" width="32" height="22" rx="6" class="d1box"/>
<text x="978.182" y="1377" class="d1txt" text-anchor="middle">D1</text>
<text x="978.182" y="1403" class="blabel" text-anchor="middle">D1</text>
<g class="c-githubactions" transform="translate(1059.73 1358) scale(1.08333)"><path d="M10.984 13.836a.5.5 0 0 1-.353-.146l-.745-.743a.5.5 0 1 1 .706-.708l.392.391 1.181-1.18a.5.5 0 0 1 .708.707l-1.535 1.533a.504.504 0 0 1-.354.146zm9.353-.147l1.534-1.532a.5.5 0 0 0-.707-.707l-1.181 1.18-.392-.391a.5.5 0 1 0-.706.708l.746.743a.497.497 0 0 0 .706-.001zM4.527 7.452l2.557-1.585A1 1 0 0 0 7.09 4.17L4.533 2.56A1 1 0 0 0 3 3.406v3.196a1.001 1.001 0 0 0 1.527.85zm2.03-2.436L4 6.602V3.406l2.557 1.61zM24 12.5c0 1.93-1.57 3.5-3.5 3.5a3.503 3.503 0 0 1-3.46-3h-2.08a3.503 3.503 0 0 1-3.46 3 3.502 3.502 0 0 1-3.46-3h-.558c-.972 0-1.85-.399-2.482-1.042V17c0 1.654 1.346 3 3 3h.04c.244-1.693 1.7-3 3.46-3 1.93 0 3.5 1.57 3.5 3.5S13.43 24 11.5 24a3.502 3.502 0 0 1-3.46-3H8c-2.206 0-4-1.794-4-4V9.899A5.008 5.008 0 0 1 0 5c0-2.757 2.243-5 5-5s5 2.243 5 5a5.005 5.005 0 0 1-4.952 4.998A2.482 2.482 0 0 0 7.482 12h.558c.244-1.693 1.7-3 3.46-3a3.502 3.502 0 0 1 3.46 3h2.08a3.503 3.503 0 0 1 3.46-3c1.93 0 3.5 1.57 3.5 3.5zm-15 8c0 1.378 1.122 2.5 2.5 2.5s2.5-1.122 2.5-2.5-1.122-2.5-2.5-2.5S9 19.122 9 20.5zM5 9c2.206 0 4-1.794 4-4S7.206 1 5 1 1 2.794 1 5s1.794 4 4 4zm9 3.5c0-1.378-1.122-2.5-2.5-2.5S9 11.122 9 12.5s1.122 2.5 2.5 2.5 2.5-1.122 2.5-2.5zm9 0c0-1.378-1.122-2.5-2.5-2.5S18 11.122 18 12.5s1.122 2.5 2.5 2.5 2.5-1.122 2.5-2.5zm-13 8a.5.5 0 1 0 1 0 .5.5 0 0 0-1 0zm2 0a.5.5 0 1 0 1 0 .5.5 0 0 0-1 0zm12 0c0 1.93-1.57 3.5-3.5 3.5a3.503 3.503 0 0 1-3.46-3.002c-.007.001-.013.005-.021.005l-.506.017h-.017a.5.5 0 0 1-.016-.999l.506-.017c.018-.002.035.006.052.007A3.503 3.503 0 0 1 20.5 17c1.93 0 3.5 1.57 3.5 3.5zm-1 0c0-1.378-1.122-2.5-2.5-2.5S18 19.122 18 20.5s1.122 2.5 2.5 2.5 2.5-1.122 2.5-2.5z"/></g>
<text x="1072.73" y="1403" class="blabel" text-anchor="middle">GitHub Actions</text>
</svg>
